<svg xmlns="http://www.w3.org/2000/svg" width="600" height="400" viewBox="0 0 600 400">
  <defs>
    <linearGradient id="grad1" x1="0%" y1="0%" x2="100%" y2="100%">
      <stop offset="0%" style="stop-color:#6c5ce7;stop-opacity:0.1" />
      <stop offset="100%" style="stop-color:#ff7675;stop-opacity:0.1" />
    </linearGradient>
  </defs>
  
  <!-- Background -->
  <rect width="600" height="400" fill="url(#grad1)" rx="20" ry="20" />
  
  <!-- Decorative elements -->
  <circle cx="100" cy="300" r="50" fill="#6c5ce7" opacity="0.5" />
  <circle cx="500" cy="100" r="70" fill="#ff7675" opacity="0.5" />
  
  <!-- Heart in hands -->
  <path d="M 260,200 C 260,160 300,160 300,180 C 300,160 340,160 340,200 C 340,260 300,280 300,280 C 300,280 260,260 260,200 Z" fill="#ff7675" stroke="#2d3436" stroke-width="3" />
  <path d="M 200,300 C 240,250 250,250 300,250 C 350,250 360,250 400,300" fill="none" stroke="#2d3436" stroke-width="5" />
  <path d="M 200,300 C 200,320 210,330 230,330 L 270,330 C 290,330 300,320 300,300" fill="none" stroke="#2d3436" stroke-width="5" />
  <path d="M 400,300 C 400,320 390,330 370,330 L 330,330 C 310,330 300,320 300,300" fill="none" stroke="#2d3436" stroke-width="5" />
  
  <!-- Text -->
  <text x="300" y="370" font-family="Arial, sans-serif" font-size="24" font-weight="bold" text-anchor="middle" fill="#2d3436">Supporting Arts Education</text>
</svg> 